<?xml version="1.0" standalone="no"?>
<!DOCTYPE svg PUBLIC "-//W3C//DTD SVG 20010904//EN"
 "http://www.w3.org/TR/2001/REC-SVG-20010904/DTD/svg10.dtd">
<svg version="1.0" xmlns="http://www.w3.org/2000/svg"
 width="300.000000pt" height="169.000000pt" viewBox="0 0 300.000000 169.000000"
 preserveAspectRatio="xMidYMid meet">
<metadata>
Created by potrace 1.10, written by Peter Selinger 2001-2011
</metadata>
<g transform="translate(0.000000,169.000000) scale(0.100000,-0.100000)"
fill="none" stroke="#FF6911" stroke-width="10">
<path d="M95 1508 c-2 -7 -7 -260 -10 -563 -3 -302 -6 -594 -8 -649 -2 -83 1
-100 15 -109 12 -8 21 -7 32 2 13 11 16 38 16 150 0 84 -4 141 -11 148 -7 7
-6 15 5 26 14 14 16 70 16 457 l0 440 26 10 c57 22 196 3 330 -45 73 -27 149
-79 138 -97 -18 -29 -246 -94 -296 -84 -36 7 -68 -8 -68 -32 0 -29 21 -42 70
-42 93 0 239 -54 307 -113 43 -37 73 -96 73 -140 0 -75 -120 -201 -253 -267
-45 -22 -119 -50 -165 -62 -69 -18 -86 -19 -106 -8 -27 14 -46 7 -46 -16 0 -8
-4 -12 -10 -9 -20 12 -9 -17 16 -41 29 -30 40 -29 182 12 137 40 255 106 338
189 38 39 80 91 92 116 70 144 -38 302 -255 375 -55 18 -81 37 -37 26 110 -25
234 31 234 107 0 86 -263 201 -467 204 -64 2 -94 6 -97 15 -3 6 -17 12 -31 12
-14 0 -28 -6 -30 -12z m90 -48 c3 -5 1 -11 -4 -11 -21 -3 -26 -4 -38 -12 -7
-5 -13 -6 -13 -3 0 2 -3 11 -6 20 -5 12 1 16 24 16 17 0 34 -4 37 -10z m253
-307 c-10 -2 -28 -2 -40 0 -13 2 -5 4 17 4 22 1 32 -1 23 -4z m77 -13 c-3 -5
-23 -10 -43 -10 -28 0 -33 3 -22 10 20 13 73 13 65 0z m-291 -649 c17 -6 17
-8 3 -14 -8 -3 -21 1 -27 9 -13 15 -6 17 24 5z"/>
<path d="M2492 1337 c-6 -7 -11 -42 -11 -78 1 -35 -4 -111 -10 -169 -6 -58
-12 -156 -13 -218 -3 -110 -2 -114 21 -133 21 -17 26 -18 45 -5 15 10 20 23
19 47 -8 118 -2 328 12 416 18 125 18 118 -1 137 -19 19 -48 21 -62 3z m36
-64 c3 -41 -4 -42 -12 -1 -3 21 0 38 9 38 0 0 2 -17 3 -37z m-31 -385 c-3 -7
-5 -2 -5 12 0 14 2 19 5 13 2 -7 2 -19 0 -25z m15 -78 c2 -23 -1 -35 -9 -35
-7 0 -13 3 -13 8 0 79 1 91 9 77 5 -8 11 -31 13 -50z"/>
<path d="M2142 1253 c-27 -50 -49 -443 -30 -514 10 -33 69 -54 133 -46 83 9
136 65 143 152 6 75 -11 113 -62 136 -23 10 -56 19 -74 19 -58 0 -114 -42 -95
-72 3 -6 1 -8 -5 -4 -6 4 -12 -5 -15 -21 -3 -23 -4 -21 -6 10 -1 26 5 43 20
58 17 17 24 41 31 108 5 47 17 101 25 120 12 24 14 38 6 50 -15 23 -60 26 -71
4z m30 -45 c-7 -7 -12 -8 -12 -2 0 14 12 26 19 19 2 -3 -1 -11 -7 -17z m38
-257 c0 -3 -9 -17 -20 -31 l-20 -25 0 31 c0 17 3 33 6 37 7 7 34 -2 34 -12z
m116 -12 c19 -22 19 -22 -3 -8 -13 8 -23 17 -23 21 0 12 6 9 26 -13z m-22 -35
c20 -19 20 -37 1 -74 -18 -34 -43 -50 -79 -50 -25 0 -26 3 -26 51 0 69 13 89
55 89 18 0 41 -7 49 -16z m-147 -31 c-3 -10 -5 -4 -5 12 0 17 2 24 5 18 2 -7
2 -21 0 -30z m0 -45 c-3 -8 -6 -5 -6 6 -1 11 2 17 5 13 3 -3 4 -12 1 -19z
m180 -41 c-16 -35 -66 -63 -118 -66 -38 -2 -50 2 -62 19 -8 11 -12 32 -9 47
l5 26 14 -27 c22 -41 56 -50 104 -26 21 11 44 29 51 40 17 26 29 15 15 -13z"/>
<path d="M936 1149 c-53 -46 -79 -124 -79 -234 -1 -110 24 -175 88 -234 56
-51 101 -61 164 -35 40 17 46 23 46 49 0 32 0 32 -98 24 -60 -5 -111 63 -129
175 -7 43 -16 66 -24 66 -8 0 -14 9 -14 20 0 18 2 17 25 -5 33 -34 79 -33 137
4 56 36 77 84 58 132 -31 74 -113 92 -174 38z m13 -49 c-13 -16 -24 -28 -27
-26 -6 6 29 56 39 56 5 0 0 -13 -12 -30z m85 -6 c22 -21 20 -29 -10 -53 -36
-28 -50 -26 -59 6 -5 21 -2 32 15 45 27 22 34 22 54 2z m-97 -61 c28 -36 33
-50 17 -50 -7 0 -14 4 -14 8 0 5 -7 6 -15 3 -11 -5 -15 1 -15 25 0 35 7 39 27
14z m43 -320 c24 -18 84 -31 108 -22 12 5 24 4 27 -1 3 -5 -11 -13 -31 -19
-37 -10 -72 -2 -106 27 -10 9 -18 11 -18 6 -1 -11 -39 57 -40 70 0 5 10 -4 22
-20 13 -16 29 -34 38 -41z"/>
<path d="M1232 1115 c-15 -19 -22 -49 -27 -112 -13 -151 10 -262 63 -303 36
-29 66 -25 106 15 47 46 61 96 94 317 13 82 -20 125 -62 82 -12 -12 -16 -36
-15 -107 1 -103 -26 -210 -61 -242 -19 -18 -20 -17 -37 21 -25 57 -26 254 0
281 22 26 22 50 -2 63 -29 15 -37 13 -59 -15z m204 -60 c-1 -33 -16 -33 -16 0
0 14 4 25 9 25 5 0 8 -11 7 -25z"/>
<path d="M1554 1106 c-35 -29 -37 -84 -5 -127 61 -82 71 -103 71 -144 0 -26
-7 -51 -18 -65 -16 -20 -21 -21 -40 -9 -26 16 -55 3 -60 -27 -4 -27 39 -65 75
-66 44 -1 69 17 93 68 19 38 22 57 17 111 -4 57 -11 74 -47 125 -48 68 -48 93
-1 75 33 -12 61 2 61 33 0 51 -97 69 -146 26z m96 -16 c0 -5 -10 -10 -23 -10
-12 0 -33 -8 -46 -17 -24 -16 -23 -8 2 25 11 14 67 16 67 2z m-17 -358 c-23
-31 -64 -40 -82 -18 -10 12 -8 14 16 10 20 -3 35 2 53 19 32 31 40 25 13 -11z"/>
<path d="M1837 1082 c-39 -43 -68 -195 -53 -275 9 -48 56 -97 93 -97 52 0 107
82 76 113 -8 8 -13 21 -11 28 2 7 18 -13 36 -43 31 -57 55 -74 85 -62 32 12
29 42 -8 103 -21 34 -39 78 -42 103 -7 51 -20 71 -44 65 -12 -3 -19 3 -23 19
-15 57 -76 83 -109 46z m73 -47 c0 -8 -4 -15 -10 -15 -5 0 -7 7 -4 15 4 8 8
15 10 15 2 0 4 -7 4 -15z m-24 -79 c-7 -40 5 -60 33 -51 26 8 26 9 -6 -66
l-27 -62 -18 23 c-21 26 -24 102 -7 164 9 33 8 42 -5 52 -9 6 -16 15 -16 20 0
5 12 -4 26 -20 20 -23 24 -36 20 -60z m49 35 c3 -10 13 -18 22 -17 12 1 19
-10 23 -34 4 -19 21 -59 39 -87 18 -29 31 -59 28 -65 -6 -20 -77 56 -77 84 -1
26 -22 58 -39 58 -6 0 -11 4 -11 9 0 5 -3 23 -6 40 -7 34 10 44 21 12z m-70
-239 c-5 -5 -45 36 -45 46 0 3 11 -5 25 -18 14 -13 23 -26 20 -28z"/>
<path d="M2786 1018 c-10 -13 -16 -43 -16 -73 0 -41 -5 -56 -23 -73 -32 -30
-43 -28 -51 9 -4 23 0 41 15 65 25 41 22 78 -7 82 -30 4 -58 -35 -73 -102 -11
-50 -11 -60 6 -94 22 -46 60 -62 100 -42 15 8 31 16 35 18 4 2 6 -9 3 -25 -2
-15 -7 -72 -11 -125 l-6 -98 -401 1 c-601 2 -941 -24 -1142 -88 -61 -19 -85
-39 -85 -69 0 -93 291 -159 780 -175 157 -5 341 -12 411 -15 109 -6 135 -4
205 15 136 38 218 100 263 202 20 43 20 43 69 40 35 -2 54 2 66 14 36 37 4 85
-58 88 l-36 2 6 55 c3 30 9 126 12 214 6 123 4 163 -6 177 -17 25 -37 24 -56
-3z m25 -119 l-9 -34 -1 37 c-1 20 2 45 6 55 7 16 8 16 11 -3 2 -12 -1 -37 -7
-55z m-38 -64 c-5 -13 -23 -22 -23 -11 0 15 14 35 21 31 4 -3 6 -12 2 -20z
m47 13 c0 -19 -18 -43 -25 -36 -4 3 -2 16 5 27 12 24 20 27 20 9z m-10 -268
c0 -5 -7 -10 -16 -10 -8 0 -12 5 -9 10 3 6 10 10 16 10 5 0 9 -4 9 -10z m42
-38 c58 -10 60 -37 3 -38 -22 0 -50 -4 -63 -8 -14 -4 -28 -3 -36 3 -7 6 -16 8
-19 4 -4 -3 -12 -1 -19 4 -7 6 -22 13 -33 16 -11 2 0 5 25 6 25 1 54 8 64 16
10 8 23 12 27 9 5 -3 28 -8 51 -12z m-289 -19 c-7 -2 -19 -2 -25 0 -7 3 -2 5
12 5 14 0 19 -2 13 -5z m-64 -33 c124 -6 226 -12 229 -14 6 -6 -17 -46 -50
-88 -36 -46 -116 -85 -216 -104 -65 -12 -112 -13 -297 -4 -445 21 -575 31
-678 50 -107 19 -257 61 -257 71 0 7 160 45 250 59 240 36 620 48 1019 30z
m281 -20 c0 -5 -7 -10 -15 -10 -8 0 -15 5 -15 10 0 6 7 10 15 10 8 0 15 -4 15
-10z m-1553 -45 c-6 -7 -15 -11 -19 -8 -14 8 -8 19 12 20 16 1 17 -1 7 -12z
m-27 -27 c0 -5 -7 -8 -15 -8 -17 0 -18 2 -9 25 5 13 8 14 15 3 5 -7 9 -16 9
-20z m25 -36 c-8 -8 -25 10 -19 20 4 6 9 5 15 -3 4 -7 6 -15 4 -17z"/>
</g>
</svg>
