<?xml version="1.0" encoding="utf-8"?>
<!-- Svg Vector Icons : http://www.onlinewebfonts.com/icon -->
<!DOCTYPE svg PUBLIC "-//W3C//DTD SVG 1.1//EN" "http://www.w3.org/Graphics/SVG/1.1/DTD/svg11.dtd">
<svg version="1.1" xmlns="http://www.w3.org/2000/svg" xmlns:xlink="http://www.w3.org/1999/xlink" x="0px" y="0px" viewBox="0 0 1000 1000" enable-background="new 0 0 1000 1000" xml:space="preserve" fill="#fff">
<metadata> Svg Vector Icons : http://www.onlinewebfonts.com/icon </metadata>
<g><g transform="translate(0.000000,511.000000) scale(0.100000,-0.100000)"><path d="M2886.8,4997.4c-9.5-7.1-16.6-535.8-16.6-1173.6v-1157h189.7h189.7v983.9v983.9H6391h3141.5V1493.1v-3141.5h-983.9h-983.9V-1838v-189.7l1168.9,4.7l1166.5,7.1v3509v3509l-3499.5,7.1C4477.7,5011.6,2893.9,5006.9,2886.8,4997.4z"/><path d="M108,2211.5c-7.1-16.6-9.5-1598-7.1-3516.1l7.1-3485.3h3509h3509v3509v3509l-3504.2,7.1C831.1,2240,115.1,2235.2,108,2211.5z M6758.5-1280.9v-3141.5H3617H475.5v3141.5v3141.5H3617h3141.5V-1280.9z"/></g></g>
</svg>