<?xml version="1.0" standalone="no"?>
<!DOCTYPE svg PUBLIC "-//W3C//DTD SVG 20010904//EN"
 "http://www.w3.org/TR/2001/REC-SVG-20010904/DTD/svg10.dtd">
<svg version="1.0" xmlns="http://www.w3.org/2000/svg"
 width="200.000000pt" height="200.000000pt" viewBox="0 0 200.000000 200.000000"
 preserveAspectRatio="xMidYMid meet">
<metadata>
Created by potrace 1.10, written by Peter Selinger 2001-2011
</metadata>
<g transform="translate(0.000000,200.000000) scale(0.050000,-0.050000)"
fill="#fff" stroke="none">
<path d="M567 3715 c-307 -344 -351 -527 -122 -511 l115 9 0 -493 0 -493 -115
9 c-216 15 -221 -27 -32 -298 233 -333 218 -333 453 -1 191 271 186 314 -31
299 l-115 -9 0 493 0 493 115 -9 c239 -17 222 64 -100 481 -67 86 -111 94
-168 30z m140 -271 c71 -103 70 -104 -67 -104 -66 0 -120 6 -120 14 0 22 104
166 120 166 8 0 38 -34 67 -76z m53 -1358 c0 -22 -104 -166 -120 -166 -16 0
-120 144 -120 166 0 8 54 14 120 14 66 0 120 -6 120 -14z"/>
<path d="M1297 2880 c-266 -141 -207 -363 342 -1285 l45 -75 -114 60 c-304
160 -607 -116 -445 -405 114 -203 1298 -935 1513 -935 67 0 1014 539 1042 593
45 86 41 566 -7 787 -136 634 -486 992 -775 795 -62 -43 -76 -46 -109 -22 -85
62 -311 14 -339 -72 -11 -34 -24 -38 -100 -28 -111 15 -170 0 -236 -61 l-53
-49 -197 324 c-252 413 -358 483 -567 373z m226 -145 c17 -14 137 -199 267
-412 130 -213 250 -392 266 -398 44 -17 93 22 100 80 15 126 179 184 249 88
66 -91 155 -58 155 57 0 118 122 154 204 60 58 -67 91 -63 167 20 280 305 733
-615 615 -1248 l-16 -87 -438 -238 c-515 -279 -438 -268 -765 -109 -506 246
-1087 655 -1087 765 0 217 168 209 482 -25 177 -131 212 -146 254 -104 42 42
31 64 -336 734 -198 362 -360 675 -360 697 0 100 167 182 243 120z"/>
</g>
</svg>
